<?xml version="1.0" standalone="yes"?>
<svg xmlns="http://www.w3.org/2000/svg" width="30" height="30">
<path style="fill:#000000; stroke:none;" d="M0 0L0 30L30 30L30 0L0 0z"/>
<path style="fill:#ffffff; stroke:none;" d="M1 24L29 24C29 19.8329 30.6723 11.0125 27.9722 7.60339C26.5945 5.86383 23.9809 6.04209 21.9992 6.00463C17.6719 5.92282 4.95861 3.90292 2.02778 7.60339C-0.672265 11.0125 1 19.8329 1 24z"/>
<path style="fill:#000000; stroke:none;" d="M2 7C3.54892 9.13569 4.86431 10.4511 7 12C5.45108 9.86431 4.13569 8.54892 2 7M27 7L23 12C25.089 10.4443 26.4028 9.51159 27 7M8 12C12.7019 18.4576 17.2981 18.4576 22 12C15.8792 16.0914 14.1208 16.0914 8 12z"/>
</svg>
